# xmcd
#
# Track frame offsets:
#	150
#	16342
#	34195
#	48417
#	62020
#	79447
#	91187
#	109329
#	124220
#	146470
#	153634
#	179635
#	187990
#	205472
#	232397
#	248162
#
# Disc length: 3629 seconds
#
# Revision: 0
# Processed by: cddbd v1.4PL0 Copyright (c) Steve Scherf et al.
# Submitted via: EasyCDDAExtractor 4.5.2.1
#
DISCID=ea0e2b10
DTITLE=Jo Bohnsack - Summertime Live
DYEAR=2000
DGENRE=Blues
TTITLE0=B5 Boogie
TTITLE1=Careless Love
TTITLE2=Give Me One Reason
TTITLE3=Rocking the old Kursaal
TTITLE4=Better World Somewhere
TTITLE5=Will it go round in Circles
TTITLE6=Since I feel for You
TTITLE7=1.Speed Boogie-2.On the Sunny Side
TTITLE8=Leave Me Alone
TTITLE9=I sing for Jack
TTITLE10=1.Talking-2. Bad Luck
TTITLE11=It´s Now or Never
TTITLE12=Black Magic Woman
TTITLE13=Sweet Home Chicago
TTITLE14=Lonely Stage Blues
TTITLE15=Summertime 
EXTD=
EXTT0=
EXTT1=
EXTT2=
EXTT3=
EXTT4=
EXTT5=
EXTT6=
EXTT7=
EXTT8=
EXTT9=
EXTT10=
EXTT11=
EXTT12=
EXTT13=
EXTT14=
EXTT15=
PLAYORDER=
